<svg viewBox="0 0 1024 1024" xmlns="http://www.w3.org/2000/svg" role="img" aria-label="Xiangkou — dotted hutong">
  <title>v6 Dotted Hutong</title>
  <g fill="#0F0F0F">
    <circle cx="242" cy="242" r="22" />
    <circle cx="332" cy="242" r="22" />
    <circle cx="422" cy="242" r="22" />
    <circle cx="512" cy="242" r="22" />
    <circle cx="602" cy="242" r="22" />
    <circle cx="692" cy="242" r="22" />

    <circle cx="242" cy="332" r="22" />
    <circle cx="782" cy="332" r="22" />

    <circle cx="242" cy="422" r="22" />
    <circle cx="782" cy="422" r="22" />

    <circle cx="242" cy="512" r="22" />
    <circle cx="782" cy="512" r="22" />

    <circle cx="242" cy="602" r="22" />
    <circle cx="782" cy="602" r="22" />

    <circle cx="242" cy="692" r="22" />
    <circle cx="782" cy="692" r="22" />

    <circle cx="242" cy="782" r="22" />
    <circle cx="332" cy="782" r="22" />
    <circle cx="422" cy="782" r="22" />
    <circle cx="512" cy="782" r="22" />
    <circle cx="602" cy="782" r="22" />
    <circle cx="692" cy="782" r="22" />
    <circle cx="782" cy="782" r="22" />
  </g>
  <circle cx="782" cy="242" r="22" fill="#D13B27" />
</svg>
